<svg width="16" height="16" viewBox="0 0 16 16" fill="none" xmlns="http://www.w3.org/2000/svg">
<g opacity="0.5">
<path fill-rule="evenodd" clip-rule="evenodd" d="M8.17804 5.13325L8.23738 5.14498C8.29169 5.14884 8.34553 5.16681 8.39254 5.19979L9.80436 6.1904C10.0329 6.35075 10.1677 6.60439 10.1677 6.87399V8.24194C10.1677 8.39848 10.0339 8.52539 9.86883 8.52539C9.70376 8.52539 9.56994 8.39848 9.56994 8.24194V6.87399C9.56994 6.78412 9.52499 6.69958 9.44881 6.64613L8.7308 6.142L8.73132 8.24194C8.73095 8.3952 8.66588 8.54773 8.53766 8.65943L6.93332 10.057C6.84536 10.1337 6.78363 10.2335 6.75607 10.3437L6.17962 12.6488C6.10343 12.9534 5.78127 13.1418 5.46003 13.0696C5.1388 12.9973 4.94015 12.6918 5.01633 12.3871L5.59278 10.0821C5.67546 9.75146 5.86066 9.45191 6.12452 9.22205L6.93985 8.51109L6.93999 6.04245C6.93999 5.85306 7.03972 5.67618 7.20579 5.57101L7.75636 5.22231C7.88323 5.14195 8.03394 5.11255 8.17804 5.13325ZM7.73078 10.0688L8.60025 9.35424C8.64335 9.38103 8.68325 9.41345 8.71865 9.45123L8.76821 9.51191L10.676 12.2015C10.8603 12.4613 10.7876 12.8136 10.5136 12.9883C10.2593 13.1506 9.92084 13.1028 9.72625 12.8871L9.684 12.8344L7.77621 10.1447C7.75878 10.1202 7.74366 10.0948 7.73078 10.0688L8.60025 9.35424L7.73078 10.0688ZM6.67321 6.94537V7.69595L5.97802 8.26973C5.86728 8.36102 5.70582 8.36128 5.59525 8.27723L5.55635 8.24178C5.46009 8.13676 5.45981 7.98363 5.54844 7.87876L5.58583 7.84189L6.67321 6.94537ZM6.85017 2.80408C7.51045 2.80408 8.04572 3.3117 8.04572 3.93788C8.04572 4.56407 7.51045 5.07169 6.85017 5.07169C6.18988 5.07169 5.65461 4.56407 5.65461 3.93788C5.65461 3.3117 6.18988 2.80408 6.85017 2.80408Z" fill="black"/>
</g>
</svg>
