<svg width="17" height="15" viewBox="0 0 17 15" fill="none" xmlns="http://www.w3.org/2000/svg">
<path fill-rule="evenodd" clip-rule="evenodd" d="M1.17018 1.34039C0.905615 1.07834 0.462525 1.32266 0.542934 1.68625L3.27099 14.0218C3.3088 14.1928 3.46039 14.3145 3.63551 14.3145H12.9026C13.0777 14.3145 13.2293 14.1928 13.2671 14.0218L15.9952 1.68625C16.0756 1.32266 15.6325 1.07834 15.3679 1.34039L12.4567 4.22388C12.3528 4.32682 12.1853 4.32682 12.0814 4.22388L8.53178 0.708062C8.38628 0.563947 8.15184 0.563947 8.00634 0.708062L4.45671 4.22388C4.35278 4.32682 4.18533 4.32682 4.0814 4.22388L1.17018 1.34039ZM5.81572 11.1145C5.6979 11.1145 5.60239 11.21 5.60239 11.3278V11.9678C5.60239 12.0857 5.6979 12.1812 5.81572 12.1812H10.7224C10.8402 12.1812 10.9357 12.0857 10.9357 11.9678V11.3278C10.9357 11.21 10.8402 11.1145 10.7224 11.1145H5.81572Z" fill="white"/>
</svg>
