<svg width="55" height="27" viewBox="0 0 55 27" fill="none" xmlns="http://www.w3.org/2000/svg">
<path d="M48.0601 0.824005H41.6196V5.74372L48.0601 10.6634V0.824005Z" fill="white"/>
<path d="M50.2821 26.9108C49.6237 26.3677 47.8367 24.7766 44.7348 22.0118C40.0184 17.8093 30.2709 9.12062 28.5146 7.9394C28.0489 7.73523 27.5302 7.77951 27.3207 7.89807C24.5805 9.44877 7.26688 24.755 5.49425 26.5802L0 22.0186C1.17465 20.6593 19.7357 4.08234 23.6491 1.86749C26.0831 0.488981 29.3499 0.457987 31.9702 1.78975C33.3505 2.48983 37.1523 5.73291 49.6564 16.877C52.2093 19.1524 54.4144 21.1173 55 21.6019L50.2821 26.9108Z" fill="#F0C630"/>
</svg>
