<svg width="20" height="23" viewBox="0 0 20 23" fill="none" xmlns="http://www.w3.org/2000/svg">
<path fill-rule="evenodd" clip-rule="evenodd" d="M14.7563 2.70198C12.2242 3.23779 10.0339 4.82418 8.73626 7.07178L6.87523 10.2952L4.10688 11.037C4.0164 11.0612 3.94528 11.1311 3.91952 11.2212L3.43546 12.9134C3.39273 13.0627 3.48619 13.2168 3.63838 13.2479L5.00856 13.5283L10.5511 16.7283L11.479 17.7748C11.5821 17.891 11.7623 17.8949 11.8703 17.7832L13.0937 16.5179C13.1588 16.4506 13.1838 16.354 13.1596 16.2635L12.4178 13.4952L14.2788 10.2718C15.5765 8.02418 15.8552 5.33417 15.0532 2.87341C15.0125 2.74862 14.8847 2.67481 14.7563 2.70198ZM11.2465 9.12389C11.7567 9.41845 12.4091 9.24364 12.7036 8.73347C12.9982 8.22329 12.8234 7.57092 12.3132 7.27637C11.803 6.98182 11.1506 7.15662 10.8561 7.6668C10.5615 8.17698 10.7363 8.82934 11.2465 9.12389Z" fill="white"/>
<path d="M5.18578 19.9604C6.40463 19.6706 7.45483 18.8913 8.08458 17.8005L8.4647 17.1421C8.53834 17.0146 8.49464 16.8515 8.3671 16.7779L6.0577 15.4445C5.93015 15.3709 5.76706 15.4146 5.69342 15.5421L5.3133 16.2005C4.68354 17.2913 4.53374 18.5904 4.89216 19.7909C4.9297 19.9167 5.0581 19.9908 5.18578 19.9604Z" fill="white"/>
</svg>
